<svg width="8" height="20" viewBox="0 0 8 20" className="menu-list__item__header-text-icon-spicy" fill="none" xmlns="http://www.w3.org/2000/svg">
<path d="M8 8V20C8 20 0 18 0 9V8C0 7.27 0.4 6.63 1 6.28L2.25 7L4 6L5.75 7L7 6.28C7.6 6.63 8 7.27 8 8ZM4 4.5L5.75 5.5L7.27 4.63C6.72 3.66 5.91 2.94 4.97 2.65C4.88527 1.92126 4.5361 1.24894 3.98868 0.760497C3.44126 0.272058 2.73365 0.00145807 2 0V2C2.44 2 2.8 2.29 2.94 2.69C2.03 3 1.26 3.7 0.729999 4.63L2.25 5.5L4 4.5Z" fill="#0D1F2E"/>
<title>Spicy food icon</title></svg>
